HIERARCHY
ROOT Hips
{
	OFFSET 0.00000 0.00000 0.00000
	CHANNELS 6 Xposition Yposition Zposition Zrotation Yrotation Xrotation 
	JOINT LHipJoint
	{
		OFFSET 0 0 0
		CHANNELS 3 Zrotation Yrotation Xrotation
		JOINT LeftHip
		{
			OFFSET 1.73240 -1.89999 0.57994
			CHANNELS 3 Zrotation Yrotation Xrotation
			JOINT LeftKnee
			{
				OFFSET 2.43106 -6.67930 0.00000
				CHANNELS 3 Zrotation Yrotation Xrotation
				JOINT LeftAnkle
				{
					OFFSET 2.78854 -7.66147 0.00000
					CHANNELS 3 Zrotation Yrotation Xrotation
					JOINT LeftToe
					{
						OFFSET 0.17314 -0.47571 2.01064
						CHANNELS 3 Zrotation Yrotation Xrotation
						End Site
						{
							OFFSET 0.00000 -0.00000 1.04147
						}
					}
				}
			}
		}
	}
	JOINT RHipJoint
	{
		OFFSET 0 0 0
		CHANNELS 3 Zrotation Yrotation Xrotation
		JOINT RightHip
		{
			OFFSET -1.57078 -1.89998 0.57994
			CHANNELS 3 Zrotation Yrotation Xrotation
			JOINT RightKnee
			{
				OFFSET -2.50166 -6.87326 0.00000
				CHANNELS 3 Zrotation Yrotation Xrotation
				JOINT RightAnkle
				{
					OFFSET -2.77304 -7.61886 0.00000
					CHANNELS 3 Zrotation Yrotation Xrotation
					JOINT RightToe
					{
						OFFSET -0.23513 -0.64602 2.11039
						CHANNELS 3 Zrotation Yrotation Xrotation
						End Site
						{
							OFFSET -0.00000 -0.00000 1.10597
						}
					}
				}
			}
		}
	}
	JOINT lowerback
	{
		OFFSET 0 0 0
		CHANNELS 3 Zrotation Yrotation Xrotation
		JOINT Chest
		{
			OFFSET -0.00908 2.00015 -0.35323
			CHANNELS 3 Zrotation Yrotation Xrotation
			JOINT Chest2
			{
				OFFSET 0.05647 2.02258 0.04270
				CHANNELS 3 Zrotation Yrotation Xrotation
				JOINT lowerneck
				{
					OFFSET 0 0 0
					CHANNELS 3 Zrotation Yrotation Xrotation
					JOINT Neck
					{
						OFFSET -0.02074 1.73711 0.13117
						CHANNELS 3 Zrotation Yrotation Xrotation
						JOINT Head
						{
							OFFSET -0.02359 1.73615 -0.24320
							CHANNELS 3 Zrotation Yrotation Xrotation
							End Site
							{
								OFFSET -0.00579 1.75982 -0.09688
							}
						}
					}
				}
				JOINT LeftCollar
				{
					OFFSET 0 0 0
					CHANNELS 3 Zrotation Yrotation Xrotation
					JOINT LeftShoulder
					{
						OFFSET 3.20537 1.11432 -0.27680
CHANNELS 3 Zrotation Xrotation Yrotation
						JOINT LeftElbow
						{
OFFSET 0 -5.059230 -0.000000
CHANNELS 3 Zrotation Xrotation Yrotation
							JOINT LeftWrist
							{
OFFSET 0 -3.519960 0.000000
CHANNELS 3 Zrotation Xrotation Yrotation
								JOINT lhand
								{
									OFFSET 0 0 0
CHANNELS 3 Zrotation Xrotation Yrotation
									JOINT LFingers
									{
OFFSET 0 -0.652380 0.000000
CHANNELS 3 Zrotation Xrotation Yrotation
										End Site
										{
OFFSET 0 -0.525960 0.000000
										}
									}
								}
								JOINT LThumb
								{
OFFSET 0 0.000000 0.000000
CHANNELS 3 Zrotation Xrotation Yrotation
									End Site
									{
OFFSET 0 -0.533990 0.533990
									}
								}
							}
						}
					}
				}
				JOINT RightCollar
				{
					OFFSET 0 0 0
					CHANNELS 3 Zrotation Yrotation Xrotation
					JOINT RightShoulder
					{
						OFFSET -2.96983 1.42602 -0.37449
CHANNELS 3 Zrotation Xrotation Yrotation
						JOINT RightElbow
						{
OFFSET 0 -5.408670 0.000000
CHANNELS 3 Zrotation Xrotation Yrotation
							JOINT RightWrist
							{
OFFSET 0 -3.129640 0.000000
CHANNELS 3 Zrotation Xrotation Yrotation
								JOINT rhand
								{
									OFFSET 0 0 0
CHANNELS 3 Zrotation Xrotation Yrotation
									JOINT RFingers
									{
OFFSET 0 -0.832710 0.000000
CHANNELS 3 Zrotation Xrotation Yrotation
										End Site
										{
OFFSET 0 -0.671350 0.000000
										}
									}
								}
								JOINT RThumb
								{
OFFSET 0 0.000000 0.000000
CHANNELS 3 Zrotation Xrotation Yrotation
									End Site
									{
OFFSET 0 -0.681600 0.681600
									}
								}
							}
						}
					}
				}
			}
		}
	}
}
MOTION
Frames: 7
Frame Time: 0.008333333333333333
1.582800 17.735900 -29.069200 -1.144900 -5.316500 -4.334000 0.000000 0.000000 0.000000 -15.669200 -11.597500 -0.313800 2.044700 8.958600 25.666100 0.000000 0.000000 0.000000 0.000000 0.000000 0.000000 0.000000 0.000000 0.000000 24.914200 6.289300 -4.048100 -2.713200 -10.215700 29.678100 -0.000000 -0.000000 0.000000 -0.000000 -0.000000 0.000000 -2.822500 -0.635100 16.785500 3.023100 -1.093400 -1.876800 5.238500 -0.214000 -11.432700 -8.213400 -9.495000 -7.007200 1.291600 -12.063500 13.302200 0.807300 -6.207800 5.755400 0.000000 -0.000000 0.000000 9.740800 14.686800 -28.492300 40.424100 -48.319200 18.755400 15.563600 5.487100 -51.544800 0.000000 0.000000 0.000000 -7.125000 0.000000 0.000000 -59.405600 76.618600 46.980800 0.000000 -0.000000 0.000000 -16.246700 -10.157200 -24.046000 -89.417000 -59.998700 -59.495100 -30.249400 -81.237800 4.012600 0.000000 0.000000 0.000000 7.125000 0.000000 -0.000000 -2.988600 34.610200 -0.763100
1.566529 17.731399 -29.065899 -0.696143 -5.359298 -4.445696 0.000000 0.000000 0.000000 -16.190361 -11.634122 -0.023692 2.012046 8.891133 25.455281 0.000000 0.000000 0.000000 0.000000 0.000000 0.000000 0.000000 0.000000 0.000000 24.425498 6.124681 -4.132848 -2.758572 -10.293600 29.932745 0.000000 0.000000 0.000000 0.000000 0.000000 0.000000 -2.940424 -0.425778 16.037339 2.743315 -0.860420 -0.859075 4.873809 -0.172649 -9.887582 -7.458550 -9.898075 -9.499868 1.137964 -12.478534 13.545965 0.475559 -6.354040 6.210697 0.000000 0.000000 0.000000 10.195007 11.982035 -28.984846 40.019866 -48.081660 18.454035 15.780418 5.586855 -51.942304 0.000000 0.000000 0.000000 -7.125000 0.000000 0.000000 -60.884668 76.853962 48.536319 0.000000 0.000000 0.000000 -15.676805 -11.911068 -24.882089 -89.528306 -59.999138 -59.591556 -30.049324 -80.903061 4.391396 0.000000 0.000000 0.000000 7.125000 0.000000 0.000000 -2.823915 35.038391 -0.691711
1.546930 17.730879 -29.067843 -0.665942 -5.530320 -4.490930 0.000000 0.000000 0.000000 -16.180524 -11.632399 0.052270 2.014317 8.895834 25.470022 0.000000 0.000000 0.000000 0.000000 0.000000 0.000000 0.000000 0.000000 0.000000 24.470489 6.182916 -4.084947 -2.765624 -10.305621 29.972134 0.000000 0.000000 0.000000 0.000000 0.000000 0.000000 -3.138412 -0.626597 15.381183 2.939021 -1.133841 -0.990996 5.248317 -0.293210 -9.622527 -8.138116 -9.543652 -7.097868 1.472377 -12.135870 12.388208 0.864989 -6.216018 5.492337 0.000000 0.000000 0.000000 9.694795 12.317402 -28.449832 39.989655 -48.063742 18.431537 15.767661 5.505492 -51.921002 0.000000 0.000000 0.000000 -7.125000 0.000000 0.000000 -60.805477 76.840823 48.452628 0.000000 0.000000 0.000000 -15.395353 -11.709163 -23.618403 -89.389581 -59.998581 -59.471407 -30.073447 -81.437907 3.425530 0.000000 0.000000 0.000000 7.125000 0.000000 0.000000 -2.838248 33.926446 -0.771680
1.526925 17.732397 -29.078027 -0.806095 -5.601232 -4.482773 0.000000 0.000000 0.000000 -15.919095 -11.531181 -0.037063 2.017233 8.901848 25.488792 0.000000 0.000000 0.000000 0.000000 0.000000 0.000000 0.000000 0.000000 0.000000 24.713776 6.270517 -4.080138 -2.766352 -10.306791 29.976101 0.000000 0.000000 0.000000 0.000000 0.000000 0.000000 -2.999705 -0.609858 15.835194 2.984610 -1.087137 -1.249616 5.233935 -0.254566 -10.177521 -7.874011 -9.511657 -6.779538 1.274802 -12.125336 12.272261 0.787804 -6.214915 5.372747 0.000000 0.000000 0.000000 9.782504 12.253020 -28.745078 39.980735 -48.058472 18.424875 15.755074 5.216716 -51.590084 0.000000 0.000000 0.000000 -7.125000 0.000000 0.000000 -59.482346 76.711031 47.143803 0.000000 0.000000 0.000000 -14.902396 -11.539617 -23.339279 -89.563011 -59.999245 -59.621540 -29.904500 -81.525076 3.279633 0.000000 0.000000 0.000000 7.125000 0.000000 0.000000 -2.698216 33.752718 -0.744975
1.509873 17.735601 -29.084905 -0.804853 -5.573473 -4.483733 0.000000 0.000000 0.000000 -15.834578 -11.479611 -0.121205 2.021743 8.911310 25.518214 0.000000 0.000000 0.000000 0.000000 0.000000 0.000000 0.000000 0.000000 0.000000 24.754314 6.193527 -4.114888 -2.760460 -10.296732 29.943076 0.000000 0.000000 0.000000 0.000000 0.000000 0.000000 -2.987345 -0.740888 15.810797 3.052707 -1.252643 -1.309315 5.342990 -0.329736 -10.209534 -7.922477 -9.333521 -6.403192 1.274516 -11.907866 12.059356 0.837942 -6.112965 5.236667 0.000000 0.000000 0.000000 9.614143 12.123050 -28.577507 40.078327 -48.116213 18.497526 15.801077 5.033634 -50.112962 0.000000 0.000000 0.000000 -7.125000 0.000000 0.000000 -53.872274 76.075085 41.646226 0.000000 0.000000 0.000000 -14.506525 -11.587948 -22.688203 -89.750033 -59.999762 -59.783502 -29.300574 -81.468985 3.649541 0.000000 0.000000 0.000000 7.125000 0.000000 0.000000 -2.203026 34.156136 -0.587469
1.494443 17.735203 -29.082387 -0.645578 -5.539222 -4.544493 0.000000 0.000000 0.000000 -15.994637 -11.504363 -0.025141 2.021149 8.909901 25.514016 0.000000 0.000000 0.000000 0.000000 0.000000 0.000000 0.000000 0.000000 0.000000 24.635206 6.128754 -4.018143 -2.751769 -10.281848 29.894527 0.000000 0.000000 0.000000 0.000000 0.000000 0.000000 -3.326059 -1.091106 15.066292 3.224796 -1.752953 -1.476969 5.817382 -0.552982 -9.895683 -8.602935 -8.751631 -3.834872 1.672743 -11.320256 10.810178 1.260030 -5.841796 4.460416 0.000000 0.000000 0.000000 8.989224 12.828232 -27.835133 40.309111 -48.251973 18.669511 16.682872 5.131192 -46.145343 0.000000 0.000000 0.000000 -7.125000 0.000000 0.000000 -40.509450 74.099876 28.999130 0.000000 0.000000 0.000000 -14.193583 -11.239985 -21.376344 -90.030132 -59.999999 -60.026054 -29.712098 -81.490026 3.537537 0.000000 0.000000 0.000000 7.125000 0.000000 0.000000 -2.541996 34.042874 -0.683908
1.475444 17.736369 -29.082033 -0.516236 -5.617579 -4.602506 0.000000 0.000000 0.000000 -16.102673 -11.520011 0.059291 2.027611 8.923271 25.555695 0.000000 0.000000 0.000000 0.000000 0.000000 0.000000 0.000000 0.000000 0.000000 24.546477 6.083025 -3.949851 -2.748446 -10.276255 29.875958 0.000000 0.000000 0.000000 0.000000 0.000000 0.000000 -3.427092 -0.916238 16.068596 3.285138 -1.552696 -1.580518 5.950392 -0.419241 -10.611702 -8.229606 -8.895925 -5.805460 1.150739 -11.318911 11.838444 0.928315 -5.849882 5.053159 0.000000 0.000000 0.000000 8.900736 12.165965 -28.372977 40.232430 -48.206962 18.612362 16.292457 5.208961 -49.231825 0.000000 0.000000 0.000000 -7.125000 0.000000 0.000000 -51.031300 75.699170 39.101170 0.000000 0.000000 0.000000 -13.966165 -11.513208 -21.561633 -90.186352 -59.999858 -60.161366 -29.453029 -81.147761 4.178828 0.000000 0.000000 0.000000 7.125000 0.000000 0.000000 -2.329204 34.768672 -0.585565
